<?xml version="1.0" encoding="UTF-8"?>
<svg width="23px" height="24px" viewBox="0 0 23 24" version="1.1" xmlns="http://www.w3.org/2000/svg" xmlns:xlink="http://www.w3.org/1999/xlink">
    <title>calendar-clock-svgrepo-com</title>
    <g id="1.-Design" stroke="none" stroke-width="1" fill="none" fill-rule="evenodd">
        <g id="Detail-akce" transform="translate(-380.000000, -302.000000)" fill="#CE1912" fill-rule="nonzero">
            <g id="CONTENT" transform="translate(0.000000, 118.000000)">
                <g id="calendar-clock-svgrepo-com" transform="translate(380.000000, 184.000000)">
                    <path d="M17.5882428,15.3333375 L16.2352971,15.3333375 L16.2352971,18 C16.2352971,18.1773375 16.3069988,18.3466625 16.4328223,18.472 L17.998184,20.013325 L18.9547094,19.0706625 L17.5882428,17.724 L17.5882428,15.3333375 L17.5882428,15.3333375 Z" id="Path"></path>
                    <path d="M16.9117636,22.6666625 C14.3005951,22.6666625 12.1764728,20.5733375 12.1764728,18 C12.1764728,15.4266625 14.3005951,13.3333375 16.9117636,13.3333375 C19.5229448,13.3333375 21.647067,15.4266625 21.647067,18 C21.647067,20.5733375 19.5229448,22.6666625 16.9117636,22.6666625 M16.9117636,12 C13.5551159,12 10.8235272,14.692 10.8235272,18 C10.8235272,21.308 13.5551159,24 16.9117636,24 C20.2684113,24 23,21.308 23,18 C23,14.692 20.2684113,12 16.9117636,12" id="Shape"></path>
                    <path d="M18.9411757,5.3333375 L1.35293297,5.3333375 L1.35293297,3.3333375 C1.35293297,2.9653375 1.65734479,2.6666625 2.02941214,2.6666625 L4.05882428,2.6666625 L4.05882428,3.3333375 C4.05882428,3.7013375 4.36189161,4 4.73529076,4 C5.10870259,4 5.41175724,3.7013375 5.41175724,3.3333375 L5.41175724,2.6666625 L14.8823514,2.6666625 L14.8823514,3.3333375 C14.8823514,3.7013375 15.1854188,4 15.5588306,4 C15.9322425,4 16.2352971,3.7013375 16.2352971,3.3333375 L16.2352971,2.6666625 L18.2647092,2.6666625 C18.6367639,2.6666625 18.9411757,2.9653375 18.9411757,3.3333375 L18.9411757,5.3333375 L18.9411757,5.3333375 Z M18.2647092,1.3333375 L16.2352971,1.3333375 L16.2352971,0.6666625 C16.2352971,0.2986625 15.9322425,0 15.5588306,0 C15.1854188,0 14.8823514,0.2986625 14.8823514,0.6666625 L14.8823514,1.3333375 L5.41175724,1.3333375 L5.41175724,0.6666625 C5.41175724,0.2986625 5.10870259,0 4.73529076,0 C4.36189161,0 4.05882428,0.2986625 4.05882428,0.6666625 L4.05882428,1.3333375 L2.02941214,1.3333375 C0.910533807,1.3333375 0,2.2306625 0,3.3333375 L0,22.6666625 L9.47058152,22.6666625 L9.47058152,21.3333375 L1.35293297,21.3333375 L1.35293297,6.6666625 L18.9411757,6.6666625 L18.9411757,10.6666625 L20.2941214,10.6666625 L20.2941214,3.3333375 C20.2941214,2.2306625 19.3835876,1.3333375 18.2647092,1.3333375 Z" id="Shape"></path>
                </g>
            </g>
        </g>
    </g>
</svg>