<?xml version="1.0" encoding="UTF-8"?>
<svg width="22px" height="26px" viewBox="0 0 22 26" version="1.1" xmlns="http://www.w3.org/2000/svg" xmlns:xlink="http://www.w3.org/1999/xlink">
    <title>pin-drop-svgrepo-com</title>
    <g id="1.-Design" stroke="none" stroke-width="1" fill="none" fill-rule="evenodd" stroke-linecap="round" stroke-linejoin="round">
        <g id="Detail-akce" transform="translate(-735.000000, -302.000000)" stroke="#CE1912" stroke-width="1.5">
            <g id="CONTENT" transform="translate(0.000000, 118.000000)">
                <g id="pin-drop-svgrepo-com" transform="translate(736.000000, 185.000000)">
                    <path d="M0,23.3142857 L20,23.3142857 M4.9185,1.98309943 C6.32471429,0.661028571 8.01857143,0 10,0 C11.9814286,0 13.6672857,0.653513143 15.0575714,1.96056686 C16.4477143,3.26760686 17.1428571,4.85256686 17.1428571,6.715488 C17.1428571,7.64694857 16.8951429,8.71360457 16.3998571,9.91542857 C15.9044286,11.1173486 15.3051429,12.2441143 14.6021429,13.2957257 C13.899,14.3474743 13.2038571,15.3314743 12.5167143,16.2478629 C11.8297143,17.1643886 11.2464286,17.8928914 10.767,18.4337829 L10,19.2 C9.80828571,18.9896229 9.55257143,18.7117714 9.233,18.3661714 C8.91342857,18.0207086 8.33814286,17.3296457 7.50714286,16.2929829 C6.67625714,15.25632 5.94918571,14.2498286 5.32598571,13.2732343 C4.70277143,12.2967771 4.13551429,11.1925029 3.62415714,9.96054857 C3.11281429,8.72863543 2.85714286,7.64694857 2.85714286,6.715488 C2.85714286,4.85256686 3.54425714,3.27512229 4.9185,1.98309943 Z" id="Shape"></path>
                </g>
            </g>
        </g>
    </g>
</svg>