<svg width="23" height="24" viewBox="0 0 23 24" xmlns="http://www.w3.org/2000/svg"><g fill="#CE1912" fill-rule="nonzero"><path d="M17.588 15.333h-1.353V18c0 .177.072.347.198.472l1.565 1.541.957-.942-1.367-1.347v-2.39z"/><path d="M16.912 22.667c-2.611 0-4.736-2.094-4.736-4.667s2.125-4.667 4.736-4.667c2.61 0 4.735 2.094 4.735 4.667s-2.124 4.667-4.735 4.667m0-10.667c-3.357 0-6.088 2.692-6.088 6s2.731 6 6.088 6C20.268 24 23 21.308 23 18s-2.732-6-6.088-6"/><path d="M18.941 5.333H1.353v-2c0-.368.304-.666.676-.666h2.03v.666c0 .368.303.667.676.667a.672.672 0 00.677-.667v-.666h9.47v.666c0 .368.303.667.677.667a.672.672 0 00.676-.667v-.666h2.03c.372 0 .676.298.676.666v2zm-.676-4h-2.03V.667A.672.672 0 0015.56 0a.672.672 0 00-.677.667v.666h-9.47V.667A.672.672 0 004.735 0a.672.672 0 00-.676.667v.666h-2.03c-1.118 0-2.029.898-2.029 2v19.334h9.47v-1.334H1.354V6.667H18.94v4h1.353V3.333c0-1.102-.91-2-2.03-2z"/></g></svg>