<svg width="22" height="26" viewBox="0 0 22 26" xmlns="http://www.w3.org/2000/svg"><path d="M1 24.314h20M5.918 2.984C7.325 1.66 9.018 1 11 1c1.981 0 3.667.654 5.058 1.96 1.39 1.308 2.085 2.893 2.085 4.755 0 .932-.248 1.999-.743 3.2a19.295 19.295 0 01-1.798 3.38 66.935 66.935 0 01-2.085 2.953 35.505 35.505 0 01-1.75 2.186L11 20.2a164.9 164.9 0 00-.767-.834c-.32-.345-.895-1.036-1.726-2.073a34.713 34.713 0 01-2.181-3.02 21.394 21.394 0 01-1.702-3.312c-.511-1.232-.767-2.314-.767-3.246 0-1.862.687-3.44 2.061-4.732z" stroke="#CE1912" stroke-width="1.5" fill="none" fill-rule="evenodd" stroke-linecap="round" stroke-linejoin="round"/></svg>