<svg width="24" height="24" viewBox="0 0 24 24" xmlns="http://www.w3.org/2000/svg"><path d="M12 0C5.373 0 0 5.373 0 12s5.373 12 12 12 12-5.373 12-12S18.627 0 12 0zm7.075 9.208c-.682 1.542-2.77 6.426-4.162 9.609-.002.001-.365-.001-.366-.001l-2.196-5.173c-.87 1.707-1.835 3.481-2.66 5.17a3.799 3.799 0 01-.399-.001c-1.26-2.943-2.568-5.867-3.835-8.807-.294-.72-1.323-1.875-2.027-1.869 0-.083-.004-.27-.005-.382h4.341l-.003.375c-.51.024-1.39.349-1.163.912.612 1.32 2.779 6.44 3.364 7.738.409-.8 1.55-2.93 2.02-3.832-.368-.756-1.586-3.577-1.95-4.288-.276-.463-.966-.52-1.498-.528 0-.119.006-.21.004-.373l3.816.012v.347c-.517.014-1.006.206-.784.7.513 1.066.813 1.825 1.284 2.81.15-.289.922-1.871 1.29-2.707.222-.555-.11-.763-1.039-.788.012-.091.004-.275.012-.362l3.296.003.002.344c-.606.024-1.233.346-1.56.847l-1.587 3.292c.174.435 1.7 3.825 1.86 4.2l3.281-7.573c-.233-.613-.978-.75-1.269-.757.002-.097.002-.246.003-.37l3.425.009.005.017-.005.342c-.752.023-1.217.425-1.495 1.084z" fill="#343A40" fill-rule="nonzero"/></svg>